HIERARCHY
ROOT hip
{
  OFFSET 0 0 0
  CHANNELS 6 Xposition Yposition Zposition Zrotation Yrotation Xrotation
  JOINT abdomen
  {
    OFFSET 0 20.6881 -0.73152
    CHANNELS 3 Zrotation Xrotation Yrotation
    JOINT chest
    {
      OFFSET 0 11.7043 -0.48768
      CHANNELS 3 Zrotation Xrotation Yrotation
      JOINT neck
      {
        OFFSET 0 22.1894 -2.19456
        CHANNELS 3 Zrotation Xrotation Yrotation
        JOINT head
        {
          OFFSET -0.24384 7.07133 1.2192
          CHANNELS 3 Zrotation Xrotation Yrotation
          JOINT leftEye
          {
            OFFSET 4.14528 8.04674 8.04672
            CHANNELS 3 Zrotation Xrotation Yrotation
            End Site
            {
              OFFSET 1 0 0
            }
          }
          JOINT rightEye
          {
            OFFSET -3.6576 8.04674 8.04672
            CHANNELS 3 Zrotation Xrotation Yrotation
            End Site
            {
              OFFSET 1 0 0
            }
          }
        }
      }
      JOINT rCollar
      {
        OFFSET -2.68224 19.2634 -4.8768
        CHANNELS 3 Zrotation Xrotation Yrotation
        JOINT rShldr
        {
          OFFSET -8.77824 -1.95073 1.46304
          CHANNELS 3 Zrotation Xrotation Yrotation
          JOINT rForeArm
          {
            OFFSET -28.1742 -1.7115 0.48768
            CHANNELS 3 Zrotation Xrotation Yrotation
            JOINT rHand
            {
              OFFSET -22.5879 0.773209 7.07136
              CHANNELS 3 Zrotation Xrotation Yrotation
              JOINT rThumb1
              {
                OFFSET -1.2192 -0.487915 3.41376
                CHANNELS 3 Zrotation Xrotation Yrotation
                JOINT rThumb2
                {
                  OFFSET -3.37035 -0.52449 3.41376
                  CHANNELS 3 Zrotation Xrotation Yrotation
                  End Site
                  {
                    OFFSET -1.78271 -1.18214 1.43049
                  }
                }
              }
              JOINT rIndex1
              {
                OFFSET -7.75947 0.938293 5.60832
                CHANNELS 3 Zrotation Xrotation Yrotation
                JOINT rIndex2
                {
                  OFFSET -2.54057 -0.884171 1.56538
                  CHANNELS 3 Zrotation Xrotation Yrotation
                  End Site
                  {
                    OFFSET -1.62519 -0.234802 1.16502
                  }
                }
              }
              JOINT rMid1
              {
                OFFSET -8.24714 1.18213 3.41376
                CHANNELS 3 Zrotation Xrotation Yrotation
                JOINT rMid2
                {
                  OFFSET -3.10165 -0.590103 1.0647
                  CHANNELS 3 Zrotation Xrotation Yrotation
                  End Site
                  {
                    OFFSET -2.48547 -0.328903 0.83742
                  }
                }
              }
              JOINT rRing1
              {
                OFFSET -8.82822 0.546677 1.51678
                CHANNELS 3 Zrotation Xrotation Yrotation
                JOINT rRing2
                {
                  OFFSET -2.60934 -0.819778 -0.0198488
                  CHANNELS 3 Zrotation Xrotation Yrotation
                  End Site
                  {
                    OFFSET -2.33842 -0.294052 0.168128
                  }
                }
              }
              JOINT rPinky1
              {
                OFFSET -8.27202 -0.0477905 -0.4584
                CHANNELS 3 Zrotation Xrotation Yrotation
                JOINT rPinky2
                {
                  OFFSET -1.82734 -0.647385 -0.700984
                  CHANNELS 3 Zrotation Xrotation Yrotation
                  End Site
                  {
                    OFFSET -1.69225 -0.51767 -0.607171
                  }
                }
              }
            }
          }
        }
      }
      JOINT lCollar
      {
        OFFSET 2.68224 19.2634 -4.8768
        CHANNELS 3 Zrotation Xrotation Yrotation
        JOINT lShldr
        {
          OFFSET 8.77824 -1.95073 1.46304
          CHANNELS 3 Zrotation Xrotation Yrotation
          JOINT lForeArm
          {
            OFFSET 28.1742 -1.7115 0.48768
            CHANNELS 3 Zrotation Xrotation Yrotation
            JOINT lHand
            {
              OFFSET 22.5879 0.773209 7.07136
              CHANNELS 3 Zrotation Xrotation Yrotation
              JOINT lThumb1
              {
                OFFSET 1.2192 -0.487915 3.41376
                CHANNELS 3 Zrotation Xrotation Yrotation
                JOINT lThumb2
                {
                  OFFSET 3.37035 -0.52449 3.41376
                  CHANNELS 3 Zrotation Xrotation Yrotation
                  End Site
                  {
                    OFFSET 1.78271 -1.18214 1.43049
                  }
                }
              }
              JOINT lIndex1
              {
                OFFSET 7.75947 0.938293 5.60832
                CHANNELS 3 Zrotation Xrotation Yrotation
                JOINT lIndex2
                {
                  OFFSET 2.54057 -0.884171 1.56538
                  CHANNELS 3 Zrotation Xrotation Yrotation
                  End Site
                  {
                    OFFSET 1.62519 -0.234802 1.16502
                  }
                }
              }
              JOINT lMid1
              {
                OFFSET 8.24714 1.18213 3.41376
                CHANNELS 3 Zrotation Xrotation Yrotation
                JOINT lMid2
                {
                  OFFSET 3.10165 -0.590103 1.0647
                  CHANNELS 3 Zrotation Xrotation Yrotation
                  End Site
                  {
                    OFFSET 2.48547 -0.328903 0.83742
                  }
                }
              }
              JOINT lRing1
              {
                OFFSET 8.82822 0.546677 1.51678
                CHANNELS 3 Zrotation Xrotation Yrotation
                JOINT lRing2
                {
                  OFFSET 2.60934 -0.819778 -0.0198488
                  CHANNELS 3 Zrotation Xrotation Yrotation
                  End Site
                  {
                    OFFSET 2.33842 -0.294052 0.168128
                  }
                }
              }
              JOINT lPinky1
              {
                OFFSET 8.27202 -0.0477905 -0.4584
                CHANNELS 3 Zrotation Xrotation Yrotation
                JOINT lPinky2
                {
                  OFFSET 1.82734 -0.647385 -0.700984
                  CHANNELS 3 Zrotation Xrotation Yrotation
                  End Site
                  {
                    OFFSET 1.69225 -0.51767 -0.607171
                  }
                }
              }
            }
          }
        }
      }
    }
  }
  JOINT rButtock
  {
    OFFSET -8.77824 4.35084 1.2192
    CHANNELS 3 Zrotation Xrotation Yrotation
    JOINT rThigh
    {
      OFFSET 0 -1.70687 -2.19456
      CHANNELS 3 Zrotation Xrotation Yrotation
      JOINT rShin
      {
        OFFSET 0 -36.8199 0.73152
        CHANNELS 3 Zrotation Xrotation Yrotation
        JOINT rFoot
        {
          OFFSET 0.73152 -45.1104 -5.12064
          CHANNELS 3 Zrotation Xrotation Yrotation
          End Site
          {
            OFFSET -1.1221 -3.69964 12.103
          }
        }
      }
    }
  }
  JOINT lButtock
  {
    OFFSET 8.77824 4.35084 1.2192
    CHANNELS 3 Zrotation Xrotation Yrotation
    JOINT lThigh
    {
      OFFSET 0 -1.70687 -2.19456
      CHANNELS 3 Zrotation Xrotation Yrotation
      JOINT lShin
      {
        OFFSET 0 -36.8199 0.73152
        CHANNELS 3 Zrotation Xrotation Yrotation
        JOINT lFoot
        {
          OFFSET -0.73152 -45.1104 -5.12064
          CHANNELS 3 Zrotation Xrotation Yrotation
          End Site
          {
            OFFSET 1.1221 -3.69964 12.103
          }
        }
      }
    }
  }
}
MOTION
Frames:	4
Frame Time:	0.03333
0.06313994955446393 30.549021685595434 -0.1524640696224064 -14.81789779663086 -29.830299377441406 11.424899101257324 8.902809143066406 11.829399108886719 2.6461997032165527 2.512049913406372 -7.393889427185059 0.8504319787025452 -0.276341050863266 13.697599411010742 7.207869052886963 4.150839805603027 -26.57979965209961 15.305498123168945 -0.0 0.0 -0.0 -0.0 0.0 -0.0 -4.6118040349053466e-14 -4.277845710044109e-13 2.7988879660115207e-13 107.20499420166016 45.81660079956055 -57.28129577636719 -27.066898345947266 -43.83359909057617 91.11509704589844 -5.06036901473999 -51.98469543457031 -10.357297897338867 -3.144149829381604e-09 3.878829257786265e-09 -7.36788186017634e-10 -5.382649437279952e-09 6.416558839816844e-09 -1.4071027676365588e-09 -3.144140281463592e-09 3.878829257786265e-09 -7.368008980712659e-10 7.7309088706970215 5.474880218505859 0.41731396317481995 -3.144149829381604e-09 3.878829257786265e-09 -7.36788186017634e-10 2.9055399894714355 0.9651829600334167 0.10290198773145676 -3.144140281463592e-09 3.878829257786265e-09 -7.367818022352424e-10 10.27859878540039 0.73180091381073 0.025912299752235413 -3.144149829381604e-09 3.878829257786265e-09 -7.367690901816104e-10 2.2216696739196777 -0.7334870100021362 -0.2089199721813202 -4.6118040349053466e-14 -4.277845710044109e-13 2.7988879660115207e-13 -44.79439163208008 13.052300453186035 -39.272396087646484 12.331600189208984 -5.685480117797852 -22.25429916381836 2.7928898334503174 41.99420166015625 -7.268439292907715 -1.6973998873126561e-09 -1.4256898772657678e-08 -5.927752066980929e-09 -3.1237801234595963e-09 -2.394219755785798e-08 -1.015890127575858e-08 -1.6973998873126561e-09 -1.4256898772657678e-08 -5.927752066980929e-09 -7.7309088706970215 5.474880218505859 -0.41731396317481995 -1.6973998873126561e-09 -1.4256898772657678e-08 -5.927752066980929e-09 -2.9055399894714355 0.9651829600334167 -0.10290198773145676 -1.6974094352306679e-09 -1.4256898772657678e-08 -5.927752066980929e-09 -10.27859878540039 0.73180091381073 -0.025912299752235413 -1.6973998873126561e-09 -1.4256898772657678e-08 -5.927771162816953e-09 -2.2216696739196777 -0.7334870100021362 0.2089199721813202 -0.0 0.0 -0.0 -13.682699203491211 5.847229957580566 -2.903599739074707 -0.021171480417251587 36.98039245605469 2.342369794845581 -8.173129081726074 -17.675500869750977 -29.68199920654297 -0.0 0.0 -0.0 73.0739974975586 -55.21889877319336 61.6304931640625 2.7072999477386475 72.87919616699219 -2.7552199363708496 -0.649882972240448 3.156169891357422 -2.184729814529419
0.12630854721682355 30.546040308022725 -0.3599320928579619 -14.246499061584473 -29.96619987487793 11.044998168945312 8.044328689575195 12.153799057006836 2.7241201400756836 2.601019859313965 -7.3835296630859375 0.8471609950065613 -0.2850908935070038 13.788200378417969 7.187830448150635 4.104730129241943 -26.96929931640625 15.279500961303711 -0.0 0.0 -0.0 -0.0 0.0 -0.0 1.6538883435522622e-13 2.5762492182959673e-13 3.753054182535631e-13 107.03999328613281 45.82759475708008 -56.95339584350586 -27.094097137451172 -43.75759506225586 90.96599578857422 -5.0153489112854 -51.83219909667969 -10.299999237060547 -1.724579368200807e-09 2.979169799743886e-09 1.716227160386552e-10 -2.9819400282349307e-09 5.057700480648464e-09 2.354946238014577e-10 -1.7245698202827953e-09 2.979169799743886e-09 1.7160363408041945e-10 7.7309088706970215 5.474880218505859 0.41731396317481995 -1.724579368200807e-09 2.979169799743886e-09 1.7161636001183922e-10 2.9055399894714355 0.9651829600334167 0.10290198773145676 -1.724579368200807e-09 2.979169799743886e-09 1.716227160386552e-10 10.27859878540039 0.73180091381073 0.025912299752235413 -1.7245904704310533e-09 2.979169799743886e-09 1.7163544197007496e-10 2.2216696739196777 -0.7334870100021362 -0.2089199721813202 1.6538883435522622e-13 2.5762492182959673e-13 3.753054182535631e-13 -44.6099967956543 12.97819995880127 -39.442298889160156 12.3464994430542 -5.695019721984863 -22.282699584960938 2.8087399005889893 42.085899353027344 -7.292039394378662 -7.422301107062879e-10 -1.1205098182642814e-08 -4.2329171279220645e-09 -1.4171198658985418e-09 -1.8919898536751134e-08 -7.271008239939647e-09 -7.42233274841908e-10 -1.1205098182642814e-08 -4.2329171279220645e-09 -7.7309088706970215 5.474880218505859 -0.41731396317481995 -7.422221726116618e-10 -1.1205098182642814e-08 -4.23293000650915e-09 -2.9055399894714355 0.9651829600334167 -0.10290198773145676 -7.422396586242996e-10 -1.1205098182642814e-08 -4.23293000650915e-09 -10.27859878540039 0.73180091381073 -0.025912299752235413 -7.422285008829022e-10 -1.1205098182642814e-08 -4.232942885096236e-09 -2.2216696739196777 -0.7334870100021362 0.2089199721813202 -0.0 0.0 -0.0 -14.4421968460083 4.848470211029053 -2.960780143737793 -0.04493140056729317 38.84199523925781 2.401979923248291 -8.092268943786621 -17.76959991455078 -29.308101654052734 -0.0 0.0 -0.0 71.85820007324219 -55.5663948059082 60.667396545410156 2.6392099857330322 72.54339599609375 -2.6804301738739014 -0.694301962852478 3.598829984664917 -1.7235599756240845
0.17897482856589605 30.5396233452975 -0.6276752681986237 -13.612698554992676 -30.10360336303711 10.628898620605469 7.1171393394470215 12.523999214172363 2.827439785003662 2.6805598735809326 -7.368769645690918 0.8424909114837646 -0.331835001707077 13.884900093078613 7.178279876708984 4.121879577636719 -27.37779998779297 15.292500495910645 -0.0 0.0 -0.0 -0.0 0.0 -0.0 1.7493049109945646e-13 4.07110976874403e-13 1.4630550731423858e-13 106.67098999023438 45.875 -56.45319747924805 -27.145000457763672 -43.614803314208984 90.68429565429688 -4.950320243835449 -51.609596252441406 -10.217199325561523 -9.742992523875671e-11 8.916223315225125e-10 4.922798835238495e-10 -1.930787474346829e-10 1.5878505177369107e-09 8.569877030240036e-10 -9.741561030063295e-11 8.916143934278864e-10 4.922671159590664e-10 7.7309088706970215 5.474880218505859 0.41731396317481995 -9.742833623205271e-11 8.916175575635066e-10 4.92273499741458e-10 2.9055399894714355 0.9651829600334167 0.10290198773145676 -9.742674722534872e-11 8.916175575635066e-10 4.922798835238495e-10 10.27859878540039 0.73180091381073 0.025912299752235413 -9.74331101910586e-11 8.916191673868923e-10 4.922925955774815e-10 2.2216696739196777 -0.7334870100021362 -0.2089199721813202 1.7493049109945646e-13 4.07110976874403e-13 1.4630550731423858e-13 -44.48689651489258 12.846100807189941 -39.6072998046875 12.372800827026367 -5.713329792022705 -22.333698272705078 2.780010223388672 41.91779708862305 -7.24899959564209 2.9540830892571535e-10 -4.006989851035314e-09 -1.1382504938595162e-09 4.731742775376802e-10 -6.8497807426126656e-09 -1.9720709509840617e-09 2.9540672685790526e-10 -4.006989851035314e-09 -1.1382504938595162e-09 -7.7309088706970215 5.474880218505859 -0.41731396317481995 2.9541627477591703e-10 -4.007010279138967e-09 -1.1382568221307565e-09 -2.9055399894714355 0.9651829600334167 -0.10290198773145676 2.9539876100770357e-10 -4.006989851035314e-09 -1.1382504938595162e-09 -10.27859878540039 0.73180091381073 -0.025912299752235413 2.9541150081691114e-10 -4.006989851035314e-09 -1.1382568221307565e-09 -2.2216696739196777 -0.7334870100021362 0.2089199721813202 -0.0 0.0 -0.0 -15.249798774719238 3.4852099418640137 -2.873809814453125 -0.0791633203625679 41.34729766845703 2.479449987411499 -7.8367085456848145 -17.78949737548828 -28.609699249267578 -0.0 0.0 -0.0 70.56049346923828 -55.949398040771484 59.57809829711914 2.555529832839966 72.10779571533203 -2.5848000049591064 -0.7694050073623657 4.160930156707764 -1.2464200258255005
0.21407422355545278 30.527936891627608 -0.9582719253550056 -12.99129867553711 -30.241003036499023 10.20099925994873 6.120459079742432 12.940199851989746 2.9563798904418945 2.7506697177886963 -7.349599838256836 0.8364219069480896 -0.41662290692329407 13.987600326538086 7.179220199584961 4.203240394592285 -27.80489730834961 15.344898223876953 -0.0 0.0 -0.0 -0.0 0.0 -0.0 -1.908332704098764e-14 2.0673604294403278e-14 -4.07110976874403e-13 106.09700012207031 45.954994201660156 -55.77830123901367 -27.21689796447754 -43.403099060058594 90.27399444580078 -4.86622953414917 -51.31690216064453 -10.109600067138672 1.7373206206983127e-09 -2.3838191420821886e-09 2.2518961695361384e-10 2.983919999977047e-09 -3.9930001527466175e-09 4.5738282605789493e-10 1.7373301686163245e-09 -2.3838304663570398e-09 2.2518326092679786e-10 7.7309088706970215 5.474880218505859 0.41731396317481995 1.7373206206983127e-09 -2.3838304663570398e-09 2.2518326092679786e-10 2.9055399894714355 0.9651829600334167 0.10290198773145676 1.7373206206983127e-09 -2.3838304663570398e-09 2.2519598685821762e-10 10.27859878540039 0.73180091381073 0.025912299752235413 1.7373095184680665e-09 -2.3838304663570398e-09 2.252023428850336e-10 2.2216696739196777 -0.7334870100021362 -0.2089199721813202 -1.908332704098764e-14 2.0673604294403278e-14 -4.07110976874403e-13 -44.425697326660156 12.656198501586914 -39.767601013183594 12.410399436950684 -5.740389823913574 -22.407299041748047 2.708279848098755 41.48979949951172 -7.140659809112549 1.4155201455423594e-09 7.337259244621919e-09 3.356267486154252e-09 2.5471105224994517e-09 1.2268098537049354e-08 5.7378919393613614e-09 1.4155201455423594e-09 7.337269014584535e-09 3.3562801426967326e-09 -7.7309088706970215 5.474880218505859 -0.41731396317481995 1.4155201455423594e-09 7.337259244621919e-09 3.356267486154252e-09 -2.9055399894714355 0.9651829600334167 -0.10290198773145676 1.4155105976243476e-09 7.337269014584535e-09 3.356267486154252e-09 -10.27859878540039 0.73180091381073 -0.025912299752235413 1.4155201455423594e-09 7.337269014584535e-09 3.356267486154252e-09 -2.2216696739196777 -0.7334870100021362 0.2089199721813202 -0.0 0.0 -0.0 -16.09360122680664 1.7568198442459106 -2.6446800231933594 -0.13090692460536957 44.496097564697266 2.5834298133850098 -7.410640239715576 -17.72869873046875 -27.587400436401367 -0.0 0.0 -0.0 69.17369079589844 -56.363895416259766 58.354496002197266 2.4593493938446045 71.57220458984375 -2.4713497161865234 -0.8786609768867493 4.8424296379089355 -0.7530249357223511
